<?xml version="1.0" encoding="UTF-8"?>
<svg id="Layer_1" xmlns="http://www.w3.org/2000/svg" version="1.1" viewBox="0 0 1350 1024">
  <!-- Generator: Adobe Illustrator 29.6.1, SVG Export Plug-In . SVG Version: 2.1.1 Build 9)  -->
  <defs>
    <style>
      .st0 {
        fill: none;
        stroke: #fff;
        stroke-miterlimit: 10;
        stroke-width: 5px;
      }
    </style>
  </defs>
  <g id="Layer_2">
    <path class="st0" d="M405.7,766v-15.7l-14.3-25.7-7.1-22.8v-11.4l10.7-15.7v-24.3l-10.7-22.8-7.1-32.8-8.6-30v-44.7l11.4-40.8,15.7-32.8,27.1-24.3,25.7-17.1,15.7-5.7h49.9l30-7.1h38.5l31.4-5.7,34.2,7.1,47.1,1.4,41.4-1.4,25.7-7.1,34.2-12.8h30l32.8-10,44.2,10,15.7,11.4,31.4,18.5,21.4,11.4,15.7,5.7,12.8-4.3,12.8-10,12.8-11.4s12.8-4.3,12.8,0-7.1,21.4-10,25.7-8.6,22.8-8.6,22.8l-15.7,25.7,15.7,32.8,31.4-15.7v39.9l20-12.8,14.3-18.5,12.8-22.8,7.1-10,5.7,34.2v28.5l-14.3,28.5-10,30-4.3,8.6-1.4,10s-4.3,10-4.3,14.3v17.1l-12.8,8.6-17.1,4.3-25.7-4.3-17.1-5.7-21.4-18.5-24.3-8.6-17.1-4.3-27.1,10-22.8,17.1-21.4,8.6-18.5,31.4s-15.7,21.4-18.5,25.7-15.7,30-15.7,30l-2.9,22.8,22.8,25.7,10,14.3-24.3-7.1-24.3-1.4-27.1-7.1s-5.7-18.5-5.7-24.3-7.1-24.3-7.1-28.5,2.9-30,2.9-35.7v-24.3l-1.4-25.7-20.7-4.3-16.4-4.3s-34.2-2.9-38.5-1.4c-4.3,1.4-25.7,11.4-25.7,11.4l-31.4,2.9s-22.8,1.4-27.1-1.4-21.4-5.7-31.4-11.4c-10-5.7-22.8-15.7-27.1-18.5-4.3-2.9-22.8-17.1-22.8-17.1,0,0-18.5-1.4-18.5,2.9s-5.7,17.1-8.6,22.8c-2.9,5.7-22.8,51.4-22.8,51.4,0,0-10,18.5-12.8,24.3s-8.6,25.7-8.6,25.7l5.7,31.4-5.7,11.4-15.7,1.4-27.1,2.9Z"/>
    <path class="st0" d="M1013.9,488.3l20.9-30.4,18.5-27.1,12.8-15.7,8.6-18.5-2.9-15.7,7.1-17.1v-14.3l-7.1-27.1,20-7.1,27.1-17.1v-24.3l-21.4-25.7-35.7-18.5-52.8-13.6-59.9-12.1-54.2-1.4h-74.2l-74.2-4.3-49.9-4.3-79.9-1.4-34.2,2.9-8.6-7.1-28.5-14.3h-95.6l-27.1,8.6-21.4,21.4v-8.6h-32.8l-21.4,7.1-25.7,21.4-21.4,8.6-35.7,11.4-32.8,14.3-8.6,21.4s4.3,12.8,7.1,17.1,25.7,17.1,25.7,17.1l39.9,7.1s5.7,11.4,5.7,17.1,1.4,14.3,5.7,25.7c4.3,11.4,14.3,48.5,14.3,48.5,0,0,2.9,8.6,12.8,14.3,10,5.7,25.7,22.8,25.7,22.8l-10,30,18.5,21.4"/>
    <path class="st0" d="M311.5,322.4h30l32.8-5.7,27.1-10h135.5s49.9,4.3,57.1,0,65.6-8.6,77-8.6,52.8,1.4,52.8,1.4l58.5,7.1s59.9-2.9,71.3,0,47.1,3.6,47.1,3.6c0,0,38.5,3.6,42.8,0s48.5,0,48.5,0c0,0,14.3,13.6,20,12.1s42.8.1,42.8.1"/>
    <polyline class="st0" points="318.6 239.6 337.2 246.8 354.3 246.8 377.1 246.8 384.3 239.6 391.4 219.7 398.5 211.1"/>
    <path class="st0" d="M398.5,241.1l25.7,5.7h22.8s34.2-7.1,38.5-5.7,35.7-12.1,35.7-12.1l20-9.3,32.8-8.6"/>
    <path class="st0" d="M646.8,747.5h-62.8l-25.7,10s-2.9,14.3,0,22.8c2.9,8.6-1.3,25.7-1.3,25.7,0,0,11.3,7.1,22.7,7.1s22.8,4.3,28.5,0,27.1-8.6,27.1-8.6l11.4-14.3s-17.1-10.9-21.4-9-39.9,0-39.9,0l16.5-13.8,33.4-7.1"/>
    <polyline class="st0" points="374.3 633.4 358.6 641.9 358.6 670.5 358.6 694.7 358.6 724.7 358.6 747.5 358.6 771.7 374.3 763.2 388.5 760.3 405.7 766 454.2 750.3 491.3 747.5 525.5 747.5 574 741.8 621.1 738.9 662.4 741.8 695.3 738.9 723.8 747.5 750.9 757.5 772.3 774.6 847.9 790.3 899.3 790.3 933.5 804.6 960.6 815 983.4 823.1"/>
    <path class="st0" d="M839.3,762.5s12.1-.7,13.2,0,17.1,8.6,18.2,8.6,23.9-1.1,28.5,0c4.6,1.1,21.8,1.1,32.1,5.3,10.3,4.3,32.5,16.8,32.5,16.8"/>
    <path class="st0" d="M950.3,610.9c0,1.8-4.6,19.3-4.6,19.3,0,0,2.1,13.6,2.1,17.8s-1.4,15.7-2.9,18.5,7.5,11.1,9.3,13.2c1.8,2.1,11.8,6.4,13.6,11.1s2.1,15.3,3.6,23.5c1.4,8.2,3.2,15.7,3.9,23.5.7,7.8,6.8,21.8,5.7,25.3s-13.9,22.1-13.9,22.1c0,0,14.5,20,14,21.4s16.6,22.5,16.6,22.5c0,0,16,15,17.8,17.1,1.8,2.1,3.2,5.7,3.2,5.7H290.8l6.8-12.1s5.3-12.8,6.4-14.3,7.8-16.8,8.9-17.5,9.6-11.1,9.6-11.1l12.8-10,19.6-13.6"/>
    <path class="st0" d="M934.5,437.9l4.3-14.7s-1-11.4,0-13.3-2.1-10-2.1-10l-6.1-8.1h-10.3s-4.8,10-5.7,14.2-4.3,10-3.3,18.5c1,8.6,7.6,18.5,7.6,18.5l4.3,7.1"/>
    <path class="st0" d="M915.4,450.3v24.3l-1.4,26.2-.5,19.5s-3.8,17.2-3.8,25.7.6,24.3,1.3,29c.6,4.8,4.4,12.8,4.4,12.8,0,0,12.8,7.6,14.3,8.1s6.1,1,9.2,2.4"/>
    <path class="st0" d="M950.6,548.2l8.6-2.4s8.6.5,10.5,2.4,6.7,7.6,6.7,7.6"/>
    <path class="st0" d="M1022.4,608.6s10-2.4,11.9-2.4,11.4,3.6,12.8,4.6,0,5.3,0,5.3h-21.4"/>
    <path class="st0" d="M1051.9,526.4l-11.4,5.7s-6.2,4.8-7.6,4.8"/>
    <path class="st0" d="M861.2,459.8l20.4,28.5s9,24.3,11.4,31.4c2.4,7.1,4.3,25.7,2.9,31.1-1.4,5.5-9.5,19.7-10,26.2-.5,6.4-.5,29.2-1.4,34.2s-1.4,15.9-3.3,17.4"/>
    <path class="st0" d="M876,613.9s-5.2-5.2-11.9-6.7c-6.7-1.4-23.3-3.8-25.7-3.8s-14.3,1.4-20,3.8c-5.7,2.4-13.3,3.8-16.6,6.7s-13.8,5.7-13.8,5.7"/>
    <path class="st0" d="M749.9,619.6c-1.4-1.9-9.5-33.3-9.7-34.7s-.2-17.1-1.2-21.9c-1-4.8-.5-20-1.9-26.2-1.4-6.2,3.1-33.3,3.1-33.3"/>
    <polyline class="st0" points="723.8 610.9 731.4 598.2 736.8 590.1"/>
    <path class="st0" d="M477.9,477.9c2.4,1.9,9.5,32.8,9.5,32.8,0,0,8.6,10.9,9,16.6s6.2,34.2,6.2,34.2v25.7"/>
  </g>
</svg>